#!OML:ASF I:\Actors\actors\Patient Classification 2\Patient 1\Session 1\actor1.ASF
:FULLY-SPECIFIED
:DEGREES
492
root -1.23908 18.5676 5.75464 -3.77961 -10.7882 -5.08638
lowerback 16.0303 -0.523047 2.91292
upperback 5.47256 -0.146401 3.02687
thorax -3.16148 -0.0951851 1.56405
lowerneck -0.752236 -2.62349 -2.69965
upperneck 42.7067 -5.60324 4.02431
head 15.3995 -2.46443 1.50806
rclavicle 1.77912e-014 -3.57812e-015
rhumerus -3.93198 -29.5854 1.71364
rradius 122.497
rwrist 11.5564
rhand -40.25 -22.1387
rfingers 7.12502
rthumb -13.2088 -51.7003
lclavicle 1.77912e-014 -3.57812e-015
lhumerus 3.15962 24.3168 6.88772
lradius 122.496
lwrist 18.5934
lhand -18.9648 -45.2025
lfingers 7.12502
lthumb 7.33914 -15.3498
rfemur 12.1019 8.73911 22.0322
rtibia 9.54166e-015
rfoot -18.0778 -11.9212
rtoes -17.6949
lfemur 0.966654 0.273074 -7.35761
ltibia 25.1559
lfoot -22.3734 11.7777
ltoes -57.9849
493
root -1.25364 18.5642 5.77376 -3.92001 -10.5983 -5.15908
lowerback 16.1436 -0.517711 2.98187
upperback 5.43028 -0.117745 3.08806
thorax -3.26643 -0.0816538 1.58611
lowerneck -0.935598 -2.06895 -1.97143
upperneck 42.8011 -4.94442 4.20471
head 15.4383 -2.04041 1.5358
rclavicle -9.93923e-015 -4.77083e-015
rhumerus -3.50034 -29.6787 1.80013
rradius 122.775
rwrist 11.7722
rhand -40.5493 -22.4605
rfingers 7.12502
rthumb -13.4972 -52.0031
lclavicle -9.93923e-015 -4.77083e-015
lhumerus 3.68409 24.3281 6.78034
lradius 122.71
lwrist 18.4938
lhand -19.092 -45.3761
lfingers 7.12502
lthumb 7.21639 -15.5192
rfemur 12.3626 8.56884 22.1742
rtibia 1.59028e-015
rfoot -18.1455 -11.885
rtoes -17.3479
lfemur 1.15219 0.172495 -7.23119
ltibia 25.143
lfoot -22.2653 11.7258
ltoes -58.0689
494
root -1.26813 18.5622 5.79439 -4.0695 -10.4164 -5.20715
lowerback 16.2729 -0.513253 3.04645
upperback 5.37082 -0.0896561 3.13128
thorax -3.39813 -0.0685415 1.59205
lowerneck -1.09747 -1.52341 -1.24549
upperneck 42.9872 -4.2777 4.30476
head 15.5261 -1.6221 1.5326
rclavicle -1.74931e-014 -9.14409e-015
rhumerus -3.02609 -29.7657 1.90156
rradius 123.027
rwrist 11.995
rhand -40.9321 -22.4612
rfingers 7.12502
rthumb -13.8662 -51.9789
lclavicle -1.74931e-014 -9.14409e-015
lhumerus 4.18573 24.2934 6.6367
lradius 122.911
lwrist 18.4239
lhand -19.1386 -45.4109
lfingers 7.12502
lthumb 7.17134 -15.5524
rfemur 12.6296 8.40746 22.2912
rtibia 4.77083e-015
rfoot -18.1603 -11.9061
rtoes -17.6456
lfemur 1.35773 0.13409 -7.1149
ltibia 25.1137
lfoot -22.146 11.5952
ltoes -58.1449
495
root -1.28205 18.5606 5.81541 -4.23929 -10.2284 -5.19115
lowerback 16.7227 -0.485829 3.15997
upperback 5.09284 0.00254576 3.11419
thorax -3.93248 -0.0266422 1.49961
lowerneck -0.821334 -1.0072 -0.554062
upperneck 43.0788 -3.67622 4.502
head 15.477 -1.23225 1.57152
rclavicle 4.07509e-015 -3.18055e-015
rhumerus -2.72314 -29.5447 2.09752
rradius 123.303
rwrist 12.2169
rhand -41.2794 -22.207
rfingers 7.12502
rthumb -14.2008 -51.7015
lclavicle 4.07509e-015 -3.18055e-015
lhumerus 4.72062 23.9878 6.49094
lradius 123.147
lwrist 18.5327
lhand -19.1568 -45.4512
lfingers 7.12502
lthumb 7.15379 -15.5921
rfemur 12.9102 8.245 22.3371
rtibia -2.22639e-014
rfoot -18.2033 -11.9344
rtoes -17.8704
lfemur 1.57688 0.0376708 -7.08449
ltibia 25.0755
lfoot -22.0718 11.4924
ltoes -58.2019
496
root -1.2948 18.5589 5.83551 -4.41794 -10.0212 -5.15528
lowerback 16.9457 -0.454617 3.18115
upperback 4.98659 0.0663012 3.13565
thorax -4.16429 0.00303967 1.50103
lowerneck -0.6874 -0.506646 0.223813
upperneck 43.1188 -3.02101 4.48329
head 15.4294 -0.827544 1.50343
rclavicle 1.98785e-014 -2.14687e-014
rhumerus -2.32547 -29.5165 2.26465
rradius 123.588
rwrist 12.2885
rhand -41.5867 -22.2099
rfingers 7.12502
rthumb -14.497 -51.6834
lclavicle 1.98785e-014 -2.14687e-014
lhumerus 5.21601 23.9049 6.43946
lradius 123.341
lwrist 18.4151
lhand -19.4904 -45.6884
lfingers 7.12502
lthumb 6.83173 -15.8186
rfemur 13.1976 8.06657 22.3499
rtibia -3.18055e-014
rfoot -18.2723 -11.9062
rtoes -17.5116
lfemur 1.78995 -0.0889402 -7.09508
ltibia 25.0419
lfoot -21.9808 11.4715
ltoes -58.4056
497
root -1.30566 18.5574 5.85481 -4.57189 -9.80839 -5.17111
lowerback 17.0573 -0.440381 3.22658
upperback 4.95641 0.103446 3.18499
thorax -4.25579 0.0205623 1.52163
lowerneck -0.716618 -0.00939966 0.863383
upperneck 43.2542 -2.37423 4.5051
head 15.4818 -0.439991 1.47897
rclavicle 1.56046e-014 4.37326e-014
rhumerus -1.85115 -29.588 2.34944
rradius 123.889
rwrist 12.1648
rhand -41.3955 -22.0104
rfingers 7.12502
rthumb -14.3128 -51.4971
lclavicle 1.56046e-014 4.37326e-014
lhumerus 5.65561 23.8855 6.40305
lradius 123.547
lwrist 18.2254
lhand -19.7177 -46.0093
lfingers 7.12502
lthumb 6.6123 -16.1326
rfemur 13.4608 7.88085 22.4015
rtibia 3.02153e-014
rfoot -18.3171 -11.8189
rtoes -16.879
lfemur 1.97072 -0.188371 -7.04634
ltibia 25.0226
lfoot -21.9259 11.4327
ltoes -58.5982
498
root -1.31576 18.5557 5.8736 -4.69793 -9.60242 -5.18125
lowerback 16.959 -0.415614 3.21079
upperback 5.0392 0.128275 3.2631
thorax -4.11572 0.0340423 1.60667
lowerneck -0.82322 0.473328 1.34882
upperneck 43.3125 -1.76722 4.64274
head 15.52 -0.079849 1.52694
rclavicle 3.69739e-014 6.36111e-015
rhumerus -1.27445 -29.7509 2.38993
rradius 124.125
rwrist 12.2076
rhand -40.7918 -21.6617
rfingers 7.12502
rthumb -13.7309 -51.1886
lclavicle 3.69739e-014 6.36111e-015
lhumerus 6.02606 23.9578 6.29717
lradius 123.784
lwrist 18.2372
lhand -19.7495 -46.1501
lfingers 7.12502
lthumb 6.58167 -16.2723
rfemur 13.6933 7.70347 22.4429
rtibia 4.6118e-014
rfoot -18.3417 -11.7357
rtoes -16.4952
lfemur 2.09941 -0.266538 -6.99483
ltibia 25.0342
lfoot -21.9277 11.288
ltoes -58.5582
499
root -1.32566 18.5536 5.89201 -4.84691 -9.38787 -5.16489
lowerback 16.5354 -0.375817 3.04244
upperback 5.34863 0.120845 3.39624
thorax -3.56287 0.0341865 1.83758
lowerneck -0.960934 0.932391 1.96138
upperneck 43.0582 -1.06623 4.44264
head 15.393 0.298106 1.40683
rclavicle 1.2921e-015 1.78906e-014
rhumerus -0.610402 -30.0723 2.48545
rradius 124.288
rwrist 12.353
rhand -40.4185 -21.7395
rfingers 7.12502
rthumb -13.3712 -51.2905
lclavicle 1.2921e-015 1.78906e-014
lhumerus 6.3128 24.3009 6.15818
lradius 123.991
lwrist 18.269
lhand -19.8471 -46.1435
lfingers 7.12502
lthumb 6.4874 -16.2629
rfemur 13.9568 7.51775 22.4626
rtibia -1.74931e-014
rfoot -18.3827 -11.7072
rtoes -16.612
lfemur 2.22609 -0.350808 -6.97236
ltibia 25.076
lfoot -21.8844 11.1144
ltoes -58.4437
500
root -1.33496 18.5495 5.90874 -5.04473 -9.17269 -5.17833
lowerback 16.6077 -0.338126 3.07933
upperback 5.37166 0.181511 3.43493
thorax -3.57739 0.0642283 1.84653
lowerneck -0.570224 1.31434 2.78416
upperneck 42.7397 -0.436919 4.10111
head 15.1269 0.65484 1.1734
rclavicle -6.75868e-015 1.82882e-014
rhumerus -0.270516 -29.9557 2.71518
rradius 124.416
rwrist 12.428
rhand -40.7468 -22.2025
rfingers 7.12502
rthumb -13.6876 -51.7324
lclavicle -6.75868e-015 1.82882e-014
lhumerus 6.73311 24.2069 6.05614
lradius 124.161
lwrist 18.2212
lhand -19.9431 -46.1624
lfingers 7.12502
lthumb 6.39478 -16.279
rfemur 14.266 7.32613 22.5196
rtibia -7.95139e-015
rfoot -18.4259 -11.6974
rtoes -16.8597
lfemur 2.40105 -0.435207 -6.91467
ltibia 25.1306
lfoot -21.7622 10.9746
ltoes -58.4982
501
root -1.34419 18.5454 5.92328 -5.23411 -8.96965 -5.18941
lowerback 17.2095 -0.315488 3.28124
upperback 5.05952 0.292334 3.37393
thorax -4.22819 0.114315 1.65336
lowerneck -0.0460168 1.66786 3.27291
upperneck 42.8002 0.00842527 4.23352
head 15.0451 0.939235 1.19152
rclavicle 8.84592e-015 1.55052e-014
rhumerus -0.134358 -29.5004 3.03002
rradius 124.495
rwrist 12.3974
rhand -41.0253 -22.5155
rfingers 7.12502
rthumb -13.956 -52.0271
lclavicle 8.84592e-015 1.55052e-014
lhumerus 7.17094 23.6609 5.89175
lradius 124.318
lwrist 18.1768
lhand -19.9847 -46.2545
lfingers 7.12502
lthumb 6.35454 -16.3698
rfemur 14.5458 7.14825 22.5688
rtibia 2.70347e-014
rfoot -18.4816 -11.6651
rtoes -16.7442
lfemur 2.56001 -0.503245 -6.85377
ltibia 25.1931
lfoot -21.5981 10.8432
ltoes -58.6488
502
root -1.35357 18.5448 5.93677 -5.407 -8.75326 -5.14079
lowerback 17.5283 -0.280673 3.28224
upperback 4.94771 0.362313 3.36229
thorax -4.51711 0.146529 1.62943
lowerneck 0.171792 2.02589 3.71792
upperneck 42.8961 0.432832 4.41376
head 15.0533 1.2168 1.23918
rclavicle 8.84592e-015 -5.1684e-015
rhumerus 0.111542 -29.2632 3.38864
rradius 124.529
rwrist 11.9483
rhand -41.0514 -22.3373
rfingers 7.12502
rthumb -13.9811 -51.8471
lclavicle 8.84592e-015 -5.1684e-015
lhumerus 7.47547 23.4621 5.70381
lradius 124.463
lwrist 18.1572
lhand -19.9567 -46.3737
lfingers 7.12502
lthumb 6.38159 -16.4899
rfemur 14.8002 6.96659 22.539
rtibia -3.18055e-014
rfoot -18.6075 -11.5806
rtoes -16.1749
lfemur 2.6745 -0.559581 -6.85845
ltibia 25.2646
lfoot -21.3546 10.7174
ltoes -58.735
